{
  "accessors": [
    {
      "bufferView": 2,
      "componentType": 5126,
      "count": 1633,
      "max": [
        0.7420850396156311,
        1.78364896774292,
        0.1788949966430664
      ],
      "min": [
        -0.7426509857177734,
        -0.005069979932159185,
        -0.16485700011253357
      ],
      "type": "VEC3"
    },
    {
      "bufferView": 2,
      "byteOffset": 19596,
      "componentType": 5126,
      "count": 1633,
      "max": [
        0.9997414350509644,
        0.9712083339691162,
        0.9999821782112122
      ],
      "min": [
        -0.9992735385894775,
        -0.9999645352363586,
        -0.9999730587005615
      ],
      "type": "VEC3"
    },
    {
      "bufferView": 1,
      "componentType": 5126,
      "count": 1633,
      "max": [
        0.9901313781738281,
        0.9985753297805786
      ],
      "min": [
        0.00641450984403491,
        0.005970954895019531
      ],
      "type": "VEC2"
    },
    {
      "bufferView": 1,
      "byteOffset": 13064,
      "componentType": 5126,
      "count": 1633,
      "max": [
        0.9901313781738281,
        0.9985753297805786
      ],
      "min": [
        0.00641450984403491,
        0.005970954895019531
      ],
      "type": "VEC2"
    },
    {
      "bufferView": 1,
      "byteOffset": 26128,
      "componentType": 5126,
      "count": 1633,
      "max": [
        0.9901313781738281,
        0.9985753297805786
      ],
      "min": [
        0.00641450984403491,
        0.005970954895019531
      ],
      "type": "VEC2"
    },
    {
      "bufferView": 1,
      "byteOffset": 39192,
      "componentType": 5126,
      "count": 1633,
      "max": [
        0.9901313781738281,
        0.9985753297805786
      ],
      "min": [
        0.00641450984403491,
        0.005970954895019531
      ],
      "type": "VEC2"
    },
    {
      "bufferView": 1,
      "byteOffset": 52256,
      "componentType": 5126,
      "count": 1633,
      "max": [
        0.9901313781738281,
        0.9985753297805786
      ],
      "min": [
        0.00641450984403491,
        0.005970954895019531
      ],
      "type": "VEC2"
    },
    {
      "bufferView": 1,
      "byteOffset": 65320,
      "componentType": 5126,
      "count": 1633,
      "max": [
        0.9901313781738281,
        0.9985753297805786
      ],
      "min": [
        0.00641450984403491,
        0.005970954895019531
      ],
      "type": "VEC2"
    },
    {
      "bufferView": 1,
      "byteOffset": 78384,
      "componentType": 5126,
      "count": 1633,
      "max": [
        0.9901313781738281,
        0.9985753297805786
      ],
      "min": [
        0.00641450984403491,
        0.005970954895019531
      ],
      "type": "VEC2"
    },
    {
      "bufferView": 1,
      "byteOffset": 91448,
      "componentType": 5126,
      "count": 1633,
      "max": [
        0.9901313781738281,
        0.9985753297805786
      ],
      "min": [
        0.00641450984403491,
        0.005970954895019531
      ],
      "type": "VEC2"
    },
    {
      "bufferView": 1,
      "byteOffset": 104512,
      "componentType": 5126,
      "count": 1633,
      "max": [
        0.9901313781738281,
        0.9985753297805786
      ],
      "min": [
        0.00641450984403491,
        0.005970954895019531
      ],
      "type": "VEC2"
    },
    {
      "bufferView": 1,
      "byteOffset": 117576,
      "componentType": 5126,
      "count": 1633,
      "max": [
        0.9901313781738281,
        0.9985753297805786
      ],
      "min": [
        0.00641450984403491,
        0.005970954895019531
      ],
      "type": "VEC2"
    },
    {
      "bufferView": 0,
      "componentType": 5125,
      "count": 8514,
      "type": "SCALAR"
    }
  ],
  "asset": {
    "extras": {
      "author": "Eduu (https://sketchfab.com/Eduu)",
      "license": "CC-BY-4.0 (http://creativecommons.org/licenses/by/4.0/)",
      "source": "https://sketchfab.com/3d-models/spiderman-92da637314a34855b6aeb59975791d70",
      "title": "Spiderman"
    },
    "generator": "Sketchfab-16.73.0",
    "version": "2.0"
  },
  "bufferViews": [
    {
      "buffer": 0,
      "byteLength": 34056,
      "name": "floatBufferViews",
      "target": 34963
    },
    {
      "buffer": 0,
      "byteLength": 130640,
      "byteOffset": 34056,
      "byteStride": 8,
      "name": "floatBufferViews",
      "target": 34962
    },
    {
      "buffer": 0,
      "byteLength": 39192,
      "byteOffset": 164696,
      "byteStride": 12,
      "name": "floatBufferViews",
      "target": 34962
    }
  ],
  "buffers": [
    {
      "byteLength": 203888,
      "uri": "scene.bin"
    }
  ],
  "materials": [
    {
      "doubleSided": true,
      "name": "SpidermanUltimate_D",
      "pbrMetallicRoughness": {
        "baseColorFactor": [
          0.8,
          0.8,
          0.8,
          1.0
        ],
        "metallicFactor": 0.0
      }
    }
  ],
  "meshes": [
    {
      "name": "Name_SpidermanUltimate_D_0",
      "primitives": [
        {
          "attributes": {
            "NORMAL": 1,
            "POSITION": 0,
            "TEXCOORD_0": 2,
            "TEXCOORD_1": 3,
            "TEXCOORD_2": 4,
            "TEXCOORD_3": 5,
            "TEXCOORD_4": 6,
            "TEXCOORD_5": 7,
            "TEXCOORD_6": 8,
            "TEXCOORD_7": 9,
            "TEXCOORD_8": 10,
            "TEXCOORD_9": 11
          },
          "indices": 12,
          "material": 0,
          "mode": 4
        }
      ]
    }
  ],
  "nodes": [
    {
      "children": [
        1
      ],
      "matrix": [
        1.0,
        0.0,
        0.0,
        0.0,
        0.0,
        2.220446049250313e-16,
        -1.0,
        0.0,
        0.0,
        1.0,
        2.220446049250313e-16,
        0.0,
        0.0,
        0.0,
        0.0,
        1.0
      ],
      "name": "Sketchfab_model"
    },
    {
      "children": [
        2
      ],
      "matrix": [
        0.009999999776482582,
        0.0,
        0.0,
        0.0,
        0.0,
        0.0,
        0.009999999776482582,
        0.0,
        0.0,
        -0.009999999776482582,
        0.0,
        0.0,
        0.0,
        0.0,
        0.0,
        1.0
      ],
      "name": "ddba48717204413db4abf1dd2ab53071.fbx"
    },
    {
      "children": [
        3
      ],
      "name": "RootNode"
    },
    {
      "children": [
        4
      ],
      "name": "Name"
    },
    {
      "mesh": 0,
      "name": "Name_SpidermanUltimate_D_0"
    }
  ],
  "scene": 0,
  "scenes": [
    {
      "name": "Sketchfab_Scene",
      "nodes": [
        0
      ]
    }
  ]
}
